<svg width="382" height="324" viewBox="0 0 382 324" fill="none" xmlns="http://www.w3.org/2000/svg">
<path d="M11.8672 191.535C10.5 193.684 9.03516 195.051 7.47266 195.637C5.71484 196.418 4.25 196.516 3.07812 195.93C1.71094 195.539 0.832031 194.562 0.441406 193C0.0507812 191.438 0.441406 189.484 1.61328 187.141C2.19922 185.969 3.56641 183.332 5.71484 179.23C7.66797 175.129 10.1094 170.246 13.0391 164.582C15.7734 158.723 18.8008 152.473 22.1211 145.832C25.4414 138.996 28.5664 132.551 31.4961 126.496C34.6211 120.441 37.4531 115.07 39.9922 110.383C42.5312 105.5 44.3867 101.984 45.5586 99.8359C43.4102 97.8828 41.9453 96.5156 41.1641 95.7344C40.3828 94.7578 39.7969 92.8047 39.4062 89.875C39.0156 87.3359 39.6016 84.0156 41.1641 79.9141C42.7266 75.8125 44.7773 71.9062 47.3164 68.1953C49.8555 64.2891 52.6875 60.9687 55.8125 58.2344C58.9375 55.5 61.9648 54.1328 64.8945 54.1328C70.3633 54.1328 74.1719 55.8906 76.3203 59.4062C78.6641 62.9219 80.0312 66.5352 80.4219 70.2461C80.8125 72.7852 80.6172 76.0078 79.8359 79.9141C79.0547 83.8203 77.5898 87.3359 75.4414 90.4609C76.0273 90.8516 76.8086 91.3398 77.7852 91.9258C78.7617 92.3164 80.3242 92.5117 82.4727 92.5117C85.5977 92.5117 87.7461 92.3164 88.918 91.9258C90.2852 91.5352 92.3359 91.3398 95.0703 91.3398C98.3906 91.3398 101.125 92.2188 103.273 93.9766C105.422 95.5391 107.18 97.5898 108.547 100.129C109.914 102.473 110.891 105.109 111.477 108.039C112.258 110.773 112.746 113.312 112.941 115.656C113.527 120.539 112.258 125.617 109.133 130.891C106.008 136.164 102.199 141.926 97.707 148.176C94.9727 152.082 92.2383 156.477 89.5039 161.359C86.7695 166.242 85.5977 170.637 85.9883 174.543C86.3789 177.082 87.0625 179.133 88.0391 180.695C89.0156 182.258 91.75 183.039 96.2422 183.039C99.5625 183.039 103.176 181.867 107.082 179.523C111.184 176.984 115.285 173.859 119.387 170.148C123.684 166.242 127.883 162.043 131.984 157.551C136.086 152.863 139.895 148.371 143.41 144.074C146.926 139.582 149.855 135.578 152.199 132.062C154.738 128.547 156.594 126.008 157.766 124.445C158.742 122.883 160.012 121.809 161.574 121.223C163.137 120.637 164.504 120.637 165.676 121.223C166.848 121.809 167.531 122.98 167.727 124.738C168.117 126.496 167.434 128.84 165.676 131.77C164.504 133.723 162.453 136.848 159.523 141.145C156.789 145.441 153.371 150.227 149.27 155.5C145.363 160.773 140.969 166.242 136.086 171.906C131.203 177.375 126.027 182.453 120.559 187.141C115.285 191.633 109.914 195.344 104.445 198.273C99.1719 201.203 94.0938 202.668 89.2109 202.668C84.1328 202.668 79.9336 201.691 76.6133 199.738C73.293 197.785 70.5586 195.441 68.4102 192.707C66.457 189.777 64.9922 186.652 64.0156 183.332C63.2344 179.816 62.9414 176.594 63.1367 173.664C63.332 171.32 63.918 168.879 64.8945 166.34C66.0664 163.605 67.3359 160.871 68.7031 158.137C70.2656 155.207 71.8281 152.375 73.3906 149.641C75.1484 146.711 76.7109 143.879 78.0781 141.145C81.3984 135.48 84.0352 130.695 85.9883 126.789C88.1367 122.688 89.2109 119.27 89.2109 116.535C89.2109 114.777 88.8203 113.215 88.0391 111.848C87.2578 110.48 85.9883 109.797 84.2305 109.797C83.0586 109.797 82.1797 109.895 81.5938 110.09C81.2031 110.09 80.7148 110.09 80.1289 110.09C79.7383 110.09 79.0547 110.188 78.0781 110.383C77.2969 110.383 76.0273 110.383 74.2695 110.383C71.7305 110.383 69.582 109.992 67.8242 109.211C66.0664 108.43 64.4062 107.844 62.8438 107.453C62.0625 108.82 60.3047 111.75 57.5703 116.242C54.8359 120.734 51.6133 126.008 47.9023 132.062C44.3867 138.117 40.5781 144.465 36.4766 151.105C32.5703 157.746 28.8594 163.996 25.3438 169.855C21.8281 175.52 18.8984 180.402 16.5547 184.504C14.0156 188.41 12.4531 190.754 11.8672 191.535ZM209.328 20.4414C208.742 22.5898 207.57 24.7383 205.812 26.8867C204.25 28.8398 202.395 30.5 200.246 31.8672C198.293 33.0391 196.242 33.8203 194.094 34.2109C191.945 34.6016 190.188 34.2109 188.82 33.0391C184.719 29.9141 182.57 26.5938 182.375 23.0781C182.18 19.3672 183.059 15.9492 185.012 12.8242C186.965 9.50391 189.406 6.76953 192.336 4.62109C195.266 2.27734 197.805 0.910156 199.953 0.519531C202.102 0.128906 203.859 0.617188 205.227 1.98438C206.789 3.15625 207.961 4.81641 208.742 6.96484C209.523 8.91797 209.914 11.1641 209.914 13.7031C210.109 16.2422 209.914 18.4883 209.328 20.4414ZM168.898 82.8438C169.875 81.6719 171.73 80.6953 174.465 79.9141C177.199 79.1328 180.031 78.5469 182.961 78.1562C185.891 77.5703 188.527 77.2773 190.871 77.2773C193.41 77.082 194.875 77.082 195.266 77.2773C195.461 77.4727 194.973 79.5234 193.801 83.4297C192.629 87.3359 191.164 91.9258 189.406 97.1992C187.648 102.473 185.793 107.941 183.84 113.605C181.887 119.074 180.422 123.566 179.445 127.082C178.469 130.598 177.297 134.602 175.93 139.094C174.562 143.391 173.293 147.688 172.121 151.984C171.145 156.086 170.461 159.992 170.07 163.703C169.68 167.414 169.973 170.246 170.949 172.199C171.926 174.543 173 176.203 174.172 177.18C175.344 177.961 176.613 178.352 177.98 178.352C181.887 178.352 186.77 176.203 192.629 171.906C198.684 167.609 204.738 162.531 210.793 156.672C217.043 150.617 222.805 144.562 228.078 138.508C233.352 132.258 237.258 127.277 239.797 123.566C241.359 121.613 242.922 120.344 244.484 119.758C246.242 119.172 247.609 119.27 248.586 120.051C249.758 120.832 250.344 122.102 250.344 123.859C250.539 125.617 249.953 127.668 248.586 130.012C245.461 135.48 240.871 142.023 234.816 149.641C228.762 157.062 222.316 164.289 215.48 171.32C208.645 178.156 201.906 184.016 195.266 188.898C188.82 193.781 183.547 196.32 179.445 196.516C176.125 196.711 172.805 196.125 169.484 194.758C166.359 193.586 163.43 191.926 160.695 189.777C158.156 187.434 156.008 184.797 154.25 181.867C152.492 178.742 151.516 175.52 151.32 172.199C150.734 167.316 150.734 160.676 151.32 152.277C151.906 143.684 152.98 134.992 154.543 126.203C156.105 117.219 158.059 108.723 160.402 100.715C162.941 92.707 165.773 86.75 168.898 82.8438ZM379.543 145.832C378.176 147.785 375.93 150.617 372.805 154.328C369.875 158.039 366.262 162.043 361.965 166.34C357.863 170.637 353.078 175.129 347.609 179.816C342.336 184.309 336.672 188.41 330.617 192.121C329.836 196.613 328.371 202.961 326.223 211.164C324.074 219.562 321.242 228.645 317.727 238.41C314.211 248.176 310.109 258.039 305.422 268C300.734 278.156 295.461 287.336 289.602 295.539C283.938 303.938 277.688 310.676 270.852 315.754C264.016 321.027 256.789 323.664 249.172 323.664C241.555 323.664 235.598 322.395 231.301 319.855C227.004 317.316 223.879 313.996 221.926 309.895C219.777 305.988 218.508 301.594 218.117 296.711C217.727 292.023 217.629 287.434 217.824 282.941C218.02 277.082 219.777 270.246 223.098 262.434C226.418 254.816 231.008 247.004 236.867 238.996C242.922 231.184 250.148 223.664 258.547 216.438C266.945 209.406 276.32 203.449 286.672 198.566C291.75 196.418 296.438 194.367 300.734 192.414C305.031 190.266 309.035 188.215 312.746 186.262C314.309 179.816 314.406 175.52 313.039 173.371C311.867 171.223 310.109 170.148 307.766 170.148C304.25 170.148 300.051 171.711 295.168 174.836C290.48 177.961 284.621 182.844 277.59 189.484C275.637 189.68 273.879 189.484 272.316 188.898C270.949 188.117 269.777 187.238 268.801 186.262C267.629 185.285 266.652 184.113 265.871 182.746C263.723 179.426 262.746 176.105 262.941 172.785C263.332 169.465 264.895 166.828 267.629 164.875C270.363 162.727 274.367 159.309 279.641 154.621C285.109 149.738 290.383 143.586 295.461 136.164C297.023 134.016 298.879 131.379 301.027 128.254C303.371 124.934 305.617 121.418 307.766 117.707C310.109 113.801 312.258 109.797 314.211 105.695C316.359 101.594 318.02 97.6875 319.191 93.9766C315.285 93.3906 309.621 93.4883 302.199 94.2695C298.293 95.0508 294.094 95.9297 289.602 96.9062C285.695 97.8828 281.203 99.1523 276.125 100.715C271.242 102.277 266.066 104.426 260.598 107.16C259.816 106.77 259.23 105.988 258.84 104.816C258.449 103.645 258.156 102.277 257.961 100.715C257.766 98.957 257.668 97.0039 257.668 94.8555C257.668 92.1211 258.059 89.875 258.84 88.1172C259.816 86.1641 260.988 84.6016 262.355 83.4297C263.723 82.2578 265.188 81.3789 266.75 80.793C268.312 80.0117 269.68 79.4258 270.852 79.0352C272.219 78.6445 274.855 78.1562 278.762 77.5703C282.863 76.7891 287.453 76.1055 292.531 75.5195C297.609 74.9336 302.883 74.543 308.352 74.3477C313.82 73.957 318.801 73.8594 323.293 74.0547C332.473 74.6406 338.234 75.9102 340.578 77.8633C343.117 79.6211 343.801 82.4531 342.629 86.3594C341.262 90.2656 338.625 96.9062 334.719 106.281C330.812 115.461 324.855 126.105 316.848 138.215C313.527 142.707 310.5 146.906 307.766 150.812C305.031 154.719 302.395 158.137 299.855 161.066C303.176 159.504 306.496 158.332 309.816 157.551C313.137 156.574 316.457 156.086 319.777 156.086C324.27 156.086 327.199 158.234 328.566 162.531C330.129 166.828 331.008 171.516 331.203 176.594C339.016 171.711 345.949 166.535 352.004 161.066C358.254 155.598 364.895 148.566 371.926 139.973C373.684 137.824 375.246 136.555 376.613 136.164C378.176 135.773 379.348 136.066 380.129 137.043C380.91 137.824 381.301 139.094 381.301 140.852C381.301 142.414 380.715 144.074 379.543 145.832ZM306.301 209.699C306.691 208.137 307.082 206.672 307.473 205.305C308.059 204.133 308.547 202.863 308.938 201.496C298.781 207.16 289.504 213.117 281.105 219.367C272.707 225.812 265.383 232.551 259.133 239.582C253.078 246.613 248.293 253.938 244.777 261.555C241.262 269.172 239.309 276.887 238.918 284.699C238.723 289.387 239.406 293.391 240.969 296.711C242.727 300.031 245.754 301.691 250.051 301.691C254.738 301.691 259.719 298.273 264.992 291.438C270.461 284.797 275.734 276.594 280.812 266.828C286.086 257.258 290.969 247.199 295.461 236.652C299.953 226.301 303.566 217.316 306.301 209.699Z" fill="white"/>
</svg>
